<?xml version="1.0" encoding="iso-8859-1"?>
<!-- Uploaded to: SVG Repo, www.svgrepo.com, Generator: SVG Repo Mixer Tools -->
<svg fill="#d9d9d9" height="800px" width="800px" version="1.1" id="Layer_1" xmlns="http://www.w3.org/2000/svg" xmlns:xlink="http://www.w3.org/1999/xlink" 
	 viewBox="0 0 512 512" xml:space="preserve">
<g>
	<g>
		<path d="M126.417,275.982v76.002c0,49.16,27.385,91.9,67.725,113.853c22.568,12.281,43.688,27.993,61.856,46.161l0.002,0.002
			l0.002-0.002c18.365-18.365,39.043-33.747,61.856-46.161c40.34-21.953,67.725-64.694,67.725-113.853v-76.002H126.417z"/>
	</g>
</g>
<g>
	<g>
		<path d="M402.294,226.61c-6.734-62.79-52.893-113.582-113.028-127.481c6.829-9.147,15.289-18.875,25.323-27.536
			c6.467-5.582,13.585-10.72,21.345-14.968c5.285-2.893,7.661-9.227,5.565-14.876l-12.551-33.82
			c-2.668-7.189-11.263-10.149-17.802-6.102c-14.655,9.069-38.502,27.761-54.272,60.028c-4.871,9.966-8.975,21.214-11.793,33.892
			c-71.042,5.21-127.858,60.778-135.375,130.865c-0.908,8.47,5.758,15.873,14.245,15.873h264.098
			C396.591,242.483,403.201,235.067,402.294,226.61z"/>
	</g>
</g>
</svg>
