<?xml version="1.0" encoding="utf-8"?>

<!-- Uploaded to: SVG Repo, www.svgrepo.com, Generator: SVG Repo Mixer Tools -->
<svg version="1.1" id="Icons" xmlns="http://www.w3.org/2000/svg" xmlns:xlink="http://www.w3.org/1999/xlink" 
	 viewBox="0 0 32 32" xml:space="preserve">
<style type="text/css">
	.st0{fill:none;stroke:#000000;stroke-width:2;stroke-linecap:round;stroke-linejoin:round;stroke-miterlimit:10;}
</style>
<path d="M29.6,13.7L29,13.1c-1-1-2.1-1.7-3.3-2.3l1.3-4.5c0.1-0.3,0-0.7-0.3-1s-0.6-0.4-1-0.3l-4.5,1.3C20.7,5.2,20,4.1,19,3.1
	l-0.5-0.5c-0.3-0.3-0.7-0.4-1.1-0.2c-0.4,0.2-0.6,0.5-0.6,0.9l0,1.4c0,0.9-0.1,1.8-0.4,2.7c-0.7-0.1-1.5-0.2-2.3-0.1
	c-3,0.1-5.8,1.4-8,3.6c-2.2,2.2-3.5,5.1-3.6,8c-0.1,3,0.9,5.8,3,7.9c1.9,1.9,4.5,3,7.3,3c0.2,0,0.4,0,0.5,0c3-0.1,5.8-1.4,8-3.6
	c2.2-2.2,3.5-5.1,3.6-8c0-0.8,0-1.5-0.1-2.3c0.9-0.3,1.7-0.4,2.7-0.4l1.4,0h0c0.4,0,0.8-0.2,0.9-0.6C29.9,14.4,29.9,14,29.6,13.7z
	 M18.7,5.9c0.6,0.8,1,1.8,1.2,2.8c-0.5-0.3-1.1-0.6-1.6-0.8C18.5,7.2,18.7,6.6,18.7,5.9z M10.2,12c1.1-0.1,2.2,0.4,3,1.2
	c0.8,0.8,1.2,1.9,1.2,3c0,0.5-0.5,0.9-1,0.9c0,0,0,0-0.1,0c-0.6,0-1-0.5-0.9-1c0-0.6-0.2-1.1-0.6-1.5c-0.4-0.4-0.9-0.6-1.5-0.6
	c-0.6,0-1-0.4-1.1-0.9C9.2,12.5,9.7,12,10.2,12z M9.9,26.3C9.9,26.3,9.8,26.3,9.9,26.3c-0.6,0-1-0.5-1-1.1c0-0.6-0.2-1.1-0.6-1.5
	c-0.4-0.4-0.9-0.6-1.5-0.6c-0.6,0-1-0.4-1.1-0.9c0-0.6,0.4-1,0.9-1.1c1.1-0.1,2.2,0.4,3,1.2c0.8,0.8,1.2,1.9,1.2,3
	C10.9,25.9,10.4,26.3,9.9,26.3z M9.9,20.7C9.9,20.7,9.8,20.7,9.9,20.7c-0.6,0-1-0.5-1-1.1c0-0.6-0.2-1.1-0.6-1.5s-0.9-0.6-1.5-0.6
	c-0.6,0-1-0.4-1.1-0.9c0-0.6,0.4-1,0.9-1.1c1.1-0.1,2.2,0.4,3,1.2c0.8,0.8,1.2,1.9,1.2,3C10.9,20.2,10.4,20.7,9.9,20.7z M15.5,26.3
	C15.5,26.3,15.5,26.3,15.5,26.3c-0.6,0-1-0.5-1-1.1c0-0.6-0.2-1.1-0.6-1.5c-0.4-0.4-0.9-0.6-1.5-0.6c-0.6,0-1-0.4-1.1-0.9
	c0-0.6,0.4-1,0.9-1.1c1.2-0.1,2.2,0.4,3,1.2c0.8,0.8,1.2,1.9,1.2,3C16.5,25.9,16.1,26.3,15.5,26.3z M19.1,22.8
	C19.1,22.8,19,22.8,19.1,22.8c-0.6,0-1-0.5-1-1.1c0-0.6-0.2-1.1-0.6-1.5c-0.4-0.4-0.9-0.6-1.5-0.6c-0.6,0-1-0.4-1.1-0.9
	c0-0.6,0.4-1,0.9-1.1c1.1-0.1,2.2,0.4,3,1.2c0.8,0.8,1.2,1.9,1.2,3C20,22.4,19.6,22.8,19.1,22.8z M19.1,17.1
	C19.1,17.1,19,17.1,19.1,17.1c-0.6,0-1-0.5-1-1.1c0-0.6-0.2-1.1-0.6-1.5c-0.4-0.4-0.9-0.6-1.5-0.6c-0.6,0-1-0.4-1.1-0.9
	c0-0.6,0.4-1,0.9-1.1c1.1-0.1,2.2,0.4,3,1.2c0.8,0.8,1.2,1.9,1.2,3C20,16.7,19.6,17.1,19.1,17.1z M21.9,8.3l2.7-0.8l-0.8,2.7
	c-0.5-0.1-1.1-0.2-1.7-0.3C22.2,9.4,22.1,8.9,21.9,8.3z M24.3,13.9c-0.2-0.6-0.5-1.1-0.8-1.6c1,0.3,1.9,0.7,2.8,1.2
	C25.6,13.5,24.9,13.7,24.3,13.9z"/>
</svg>