<?xml version="1.0" encoding="utf-8"?>
<!-- Uploaded to: SVG Repo, www.svgrepo.com, Generator: SVG Repo Mixer Tools -->
<svg width="800px" height="800px" viewBox="0 0 960 960" fill="none" xmlns="http://www.w3.org/2000/svg">
<g clip-path="url(#clip0_391_459)">
<path d="M785.123 667.667C785.123 674.734 785.123 681.801 785.123 688.868C784.763 692.176 784.358 695.485 784.058 698.801C781.372 728.036 773.285 755.697 759.008 781.354C728.655 835.932 682.516 871.365 623.94 891.26C613.429 894.831 602.296 896.564 591.726 899.993C559.662 910.398 526.862 916.707 493.238 918.861C488.796 919.146 484.363 919.521 479.929 919.858C470.259 919.858 460.588 919.858 450.918 919.858C449.92 919.701 448.93 919.476 447.925 919.401C438.21 918.621 428.457 918.125 418.772 917.06C385.275 913.399 352.82 905.454 321.709 892.416C285.414 877.209 253.162 856.09 227.055 826.314C198.787 794.078 181.824 756.65 176.363 714.082C175.74 709.229 175.275 704.345 174.742 699.483C174.742 692.971 174.742 686.467 174.742 679.955C174.907 679.055 175.17 678.155 175.222 677.254C176.228 659.609 179.836 642.482 185.65 625.827C197.729 591.258 216.717 560.761 240.423 533.033C250.866 520.813 261.437 508.682 271.287 495.988C282.765 481.201 290.185 464.404 292.008 445.619C293.201 433.338 293.658 420.967 294.184 408.633C294.784 394.424 294.709 380.11 298.415 366.284C313.382 310.415 345.903 267.803 395.95 238.807C414.96 227.794 435.524 221.027 457.52 218.994C462.471 218.537 467.483 218.589 471.999 215.798C473.455 214.906 474.002 214.223 473.702 212.632C472.772 207.614 472.089 202.535 470.979 197.561C465.547 173.344 456.222 150.83 440.895 131.122C431.638 119.216 420.227 110.063 405.493 105.682C398.508 103.604 391.329 104.159 384.179 104.032C378.065 103.927 371.831 104.047 365.874 102.914C348.612 99.6204 336.473 82.1629 338.844 64.848C340.329 54.0074 348.544 45.515 360.833 42.3341C364.584 41.3663 368.44 40.7812 372.243 40.0234C376.332 40.0234 380.428 40.0234 384.517 40.0234C386.145 40.3085 387.773 40.6236 389.401 40.8787C406.738 43.5269 422.268 50.6315 436.612 60.4217C457.655 74.7808 475.203 92.4633 487.093 115.232C500.41 140.732 502.435 168.062 499.682 196.098C499.172 201.312 498.452 206.496 497.814 211.845C509.292 212.04 520.268 213.675 530.921 217.231C554.29 225.033 572.895 239.588 588.605 258.148C607.083 279.987 620.519 304.796 629.296 331.856C635.816 351.955 640.767 372.563 646.086 393.036C652.065 416.06 658.367 438.942 668.457 460.593C677.595 480.203 677.618 480.181 693.267 494.893C707.559 508.329 722.173 521.45 734.709 536.612C762.407 570.102 778.311 608.617 783.465 651.672C784.118 656.984 784.583 662.333 785.123 667.667ZM513.193 466.422C513.456 466.422 513.711 466.422 513.974 466.422C513.974 454.621 514.071 442.813 513.951 431.012C513.696 405.4 508.384 380.853 497.739 357.544C485.053 329.763 465.847 308.217 437.497 295.689C431.75 293.145 426.004 290.295 419.424 290.685C414.788 290.955 410.122 291.037 405.538 291.705C398.441 292.74 391.554 294.998 386.55 300.302C364.254 323.927 350.832 351.82 348.379 384.371C347.194 400.103 347.351 415.948 347.141 431.747C346.984 443.856 346.248 455.882 344.013 467.802C339.744 490.526 330.246 510.895 316.157 529.117C303.081 546.027 289.66 562.682 276.576 579.584C262.36 597.942 249.696 617.26 241.901 639.354C234.834 659.392 231.991 679.873 235.434 701.044C238.923 722.485 247.723 741.63 260.251 759.185C260.994 760.221 261.999 761.113 263.012 761.909C282.698 777.468 304.296 789.689 327.741 798.579C362.055 811.595 397.48 817.484 434.113 813.336C471.369 809.112 501.423 791.519 524.394 762.051C542.399 738.96 552.767 712.597 556.518 683.594C559.737 658.679 557.546 634.372 547.433 611.213C540.899 596.246 533.719 581.557 526.562 566.868C519.36 552.074 515.091 536.53 513.433 520.205C511.618 502.275 512.473 484.352 513.193 466.422Z" fill="#000000"/>
<path d="M513.196 466.422C512.475 484.352 511.62 502.275 513.436 520.205C515.094 536.529 519.362 552.081 526.564 566.868C533.721 581.557 540.893 596.246 547.435 611.213C557.548 634.372 559.746 658.679 556.52 683.593C552.769 712.597 542.401 738.967 524.396 762.051C501.425 791.519 471.371 809.112 434.116 813.335C397.483 817.491 362.065 811.595 327.743 798.579C304.299 789.689 282.7 777.46 263.014 761.908C262.002 761.113 260.996 760.22 260.254 759.185C247.725 741.63 238.925 722.485 235.437 701.043C231.993 679.872 234.836 659.384 241.904 639.353C249.698 617.26 262.362 597.949 276.578 579.584C289.67 562.682 303.083 546.027 316.16 529.117C330.249 510.894 339.754 490.526 344.015 467.802C346.251 455.881 346.978 443.855 347.143 431.747C347.353 415.948 347.196 400.103 348.381 384.371C350.827 351.827 364.248 323.926 386.552 300.302C391.556 294.998 398.435 292.74 405.54 291.705C410.124 291.037 414.79 290.955 419.426 290.684C426.006 290.294 431.752 293.145 437.499 295.688C465.85 308.224 485.055 329.771 497.741 357.543C508.379 380.853 513.698 405.392 513.953 431.012C514.073 442.813 513.976 454.621 513.976 466.422C513.713 466.422 513.458 466.422 513.196 466.422Z" fill="white"/>
</g>
<defs>
<clipPath id="clip0_391_459">
<rect width="611.424" height="880" fill="white" transform="translate(174 40)"/>
</clipPath>
</defs>
</svg>