<?xml version="1.0" encoding="iso-8859-1"?>
<!-- Uploaded to: SVG Repo, www.svgrepo.com, Generator: SVG Repo Mixer Tools -->
<svg height="800px" width="800px" version="1.1" id="Layer_1" xmlns="http://www.w3.org/2000/svg" xmlns:xlink="http://www.w3.org/1999/xlink" 
	 viewBox="0 0 512.001 512.001" xml:space="preserve">
<path style="fill:#CFF09E;" d="M352.395,125.794c12.956-25.283,6.486-60.124,6.486-60.124s-33.188-6.166-58.284,5.58
	c-8.556-32.784-44.59-57.536-44.59-57.536s-36.036,24.752-44.594,57.536c-25.097-11.745-58.282-5.58-58.282-5.58
	s-6.47,34.842,6.484,60.123c-13.794,11.186-22.59,23.996-22.59,23.996s27.707,40.36,61.885,40.36
	c25.68,0,47.707-22.782,57.074-34.113c0.003,0.003,0.023,0.016,0.023,0.016s0.021-0.015,0.025-0.016
	c9.366,11.331,31.39,34.113,57.069,34.113c34.178,0,61.885-40.36,61.885-40.36S366.188,136.98,352.395,125.794z"/>
<g>
	<path style="fill:#507C5C;" d="M408.712,284.627c-2.001-7.306-9.547-11.608-16.85-9.604c-7.306,2-11.605,9.544-9.604,16.85
		c4.951,18.08,7.462,36.081,7.462,53.506c0,80.655-56.236,139.193-133.716,139.193s-133.716-58.539-133.716-139.193
		c0-32.675,9.163-67.313,24.687-97.385l28.784,31.908c6.422,7.118,15.603,11.201,25.189,11.201c9.586,0,18.768-4.083,25.188-11.201
		l36.132-40.053c5.074-5.624,4.627-14.296-0.997-19.37c-5.623-5.072-14.296-4.627-19.369,0.997l-36.133,40.053
		c-1.683,1.865-3.743,2.144-4.822,2.144s-3.139-0.278-4.823-2.144l-34.326-38.051c5.746-8.17,12.002-15.744,18.696-22.545
		c5.844,1.843,12.006,2.934,18.413,2.934c23.509,0,43.565-14.325,57.099-27.593c13.531,13.269,33.585,27.593,57.093,27.593
		c6.407,0,12.569-1.089,18.413-2.934c5.473,5.55,10.697,11.633,15.619,18.214l-38.983,42.271c-0.033,0.037-0.067,0.074-0.1,0.111
		c-1.684,1.867-3.744,2.145-4.825,2.145c-1.078,0-3.139-0.278-4.823-2.145c-5.074-5.624-13.746-6.069-19.37-0.996
		c-5.624,5.074-6.069,13.746-0.996,19.37c6.422,7.118,15.603,11.201,25.188,11.201c9.559,0,18.713-4.058,25.132-11.136
		l46.451-50.369c4.442-4.816,4.77-11.954,1.175-17.118c-0.066-0.103-0.119-0.211-0.188-0.313
		c-5.903-8.812-12.277-16.998-19.049-24.479c17.553-12.907,28.776-29.012,29.545-30.135c3.212-4.678,3.211-10.85-0.001-15.526
		c-0.331-0.481-6.843-9.889-17.464-20.015c9.238-27.146,3.803-57.414,3.538-58.845c-1.037-5.579-5.401-9.943-10.98-10.98
		c-0.406-0.075-10.097-1.849-23.075-1.849c-10.788,0-20.673,1.171-29.549,3.493c-14.048-29.899-43.558-50.44-44.989-51.422
		c-4.679-3.212-10.851-3.213-15.53,0c-1.43,0.982-30.944,21.519-44.993,51.422c-8.877-2.322-18.761-3.493-29.549-3.493
		c-12.979,0-22.669,1.772-23.075,1.849c-5.578,1.037-9.942,5.401-10.978,10.978c-0.265,1.43-5.701,31.698,3.537,58.845
		c-10.622,10.127-17.135,19.535-17.465,20.016c-3.212,4.677-3.213,10.848-0.001,15.526c0.771,1.122,11.995,17.229,29.549,30.137
		c-37.1,40.957-60.407,100.89-60.407,157.689c0,47.323,16.759,90.172,47.19,120.654c29.594,29.642,70.064,45.968,113.955,45.968
		s84.36-16.326,113.955-45.968c30.431-30.482,47.19-73.33,47.19-120.654C417.15,325.507,414.311,305.068,408.712,284.627z
		 M168.254,136.445c5.036-4.084,6.524-11.136,3.567-16.907c-6.846-13.361-7.044-30.76-6.31-41.49
		c2.429-0.165,5.199-0.281,8.19-0.281c12.616,0,23.646,2.042,31.901,5.904c3.686,1.727,7.953,1.723,11.639-0.007
		s6.414-5.01,7.443-8.951c4.908-18.805,21.44-35.171,31.364-43.611c10.919,9.322,26.642,25.844,31.279,43.611
		c1.029,3.942,3.755,7.221,7.443,8.951c3.685,1.731,7.949,1.734,11.641,0.007c8.253-3.862,19.285-5.904,31.901-5.904
		c2.983,0,5.746,0.115,8.171,0.28c0.72,10.759,0.516,28.209-6.292,41.493c-2.957,5.77-1.469,12.823,3.567,16.907
		c5.605,4.545,10.316,9.444,13.749,13.378c-9.826,11.225-27.137,26.612-44.405,26.612c-20.23,0-39.256-20.377-46.497-29.138
		c-2.698-3.263-6.601-4.969-10.546-4.977c-0.022,0-0.043,0-0.064,0c-3.968,0-7.883,1.717-10.578,4.977
		c-7.243,8.761-26.271,29.138-46.504,29.138c-17.272,0-34.588-15.394-44.405-26.609
		C157.942,145.889,162.659,140.983,168.254,136.445z"/>
	<path style="fill:#507C5C;" d="M216.994,371.251l26.156-28.995c5.073-5.624,4.627-14.296-0.997-19.37
		c-5.622-5.072-14.295-4.627-19.369,0.997l-26.158,28.995c-0.074,0.084-0.272,0.303-0.679,0.303c-0.407,0-0.605-0.219-0.68-0.303
		l-26.156-28.995c-5.072-5.624-13.745-6.07-19.369-0.997c-5.624,5.074-6.07,13.746-0.997,19.37l26.155,28.995
		c5.365,5.947,13.037,9.359,21.048,9.359C203.958,380.61,211.63,377.199,216.994,371.251z"/>
	<path style="fill:#507C5C;" d="M337.108,371.251l26.156-28.995c5.073-5.624,4.627-14.296-0.997-19.37
		c-5.622-5.072-14.296-4.627-19.369,0.997l-26.158,28.995c-0.074,0.084-0.272,0.303-0.679,0.303s-0.605-0.219-0.68-0.303
		l-26.156-28.995c-5.072-5.624-13.745-6.07-19.369-0.997c-5.624,5.074-6.07,13.746-0.997,19.37l26.155,28.995
		c5.365,5.947,13.037,9.359,21.048,9.359S331.744,377.199,337.108,371.251z"/>
	<path style="fill:#507C5C;" d="M234.304,452.629c5.365,5.947,13.037,9.359,21.048,9.359c8.011,0,15.682-3.412,21.046-9.359
		l26.156-28.995c5.073-5.624,4.627-14.296-0.997-19.37c-5.622-5.072-14.296-4.629-19.369,0.997l-26.158,28.995
		c-0.074,0.084-0.272,0.303-0.679,0.303s-0.605-0.219-0.68-0.303l-26.156-28.994c-5.072-5.624-13.745-6.07-19.369-0.997
		c-5.624,5.074-6.07,13.746-0.997,19.37L234.304,452.629z"/>
</g>
</svg>