<?xml version="1.0" encoding="utf-8"?>
<!-- Uploaded to: SVG Repo, www.svgrepo.com, Generator: SVG Repo Mixer Tools -->
<svg version="1.1" id="Icons" xmlns="http://www.w3.org/2000/svg" xmlns:xlink="http://www.w3.org/1999/xlink" 
	 viewBox="0 0 32 32" xml:space="preserve">
<style type="text/css">
	.st0{fill:#d9d9d9;stroke:#808080;stroke-width:2;stroke-linecap:round;stroke-linejoin:round;stroke-miterlimit:10;}
</style>
<path class="st0" d="M23.4,8.9c0.1-0.2,0.3-0.4,0.4-0.6C24,8.1,24,7.7,23.9,7.5c0-0.1-0.1-0.3-0.1-0.4c0,0,0,0,0,0c-0.4-0.8-1-1.3-1.9-1.6
	c-0.8-0.2-1.7-0.2-2.5,0.1C18.9,3.4,17.6,2,16,2c-1.5,0-2.8,1.4-3.3,3.5c-0.9-0.2-1.7-0.2-2.4,0C9.4,5.8,8.8,6.3,8.4,7.1
	C8.3,7.3,8.2,7.5,8.2,7.8C8.1,8,8.1,8.3,8.3,8.5c0.1,0.1,0.2,0.3,0.3,0.4C4.9,9.7,3,12.5,3,17.4C3,24.4,8.8,30,16,30s13-5.6,13-12.6
	C29,12.5,27.1,9.7,23.4,8.9z M10.8,7.4c0.6-0.2,1.4-0.1,2.2,0.4c0.3,0.2,0.7,0.2,1,0c0.3-0.2,0.5-0.5,0.5-0.8c0.1-1.8,0.9-3,1.6-3
	c0.6,0,1.4,1.3,1.6,3.1c0,0.3,0.2,0.7,0.5,0.8c0.3,0.2,0.7,0.2,1,0c0.8-0.5,1.6-0.6,2.3-0.4c0.2,0.1,0.4,0.2,0.5,0.3
	c-1.4,2-3.5,3.2-5.7,3.2L16,11c-2.2,0-4.3-1.1-5.8-3.1C10.4,7.7,10.6,7.5,10.8,7.4z"/>
</svg>
